<svg xmlns="http://www.w3.org/2000/svg" viewBox="0 0 200 150">
  <defs>
    <style>
      @import url('https://fonts.googleapis.com/css2?family=Space+Grotesk:wght@700&amp;display=swap');
      .logo-text {
        font-family: 'Space Grotesk', sans-serif;
        font-weight: 700;
        letter-spacing: -1px;
      }
    </style>
  </defs>
  <g transform="translate(50, 100) scale(1, -1)" fill="#065f46">
    <path d="M86.5,75.3c-0.3,0.2-0.6,0.4-0.9,0.6c-0.2,0.1-0.4,0.2-0.6,0.3c-1.2,0.6-2.5,0.9-3.9,0.9c-0.2,0-0.4,0-0.7,0   c-2.6,0.1-5.2,0.7-7.6,1.6c-1.7,0.7-3.3,1.5-4.9,2.4c-1.6,0.9-3.1,2-4.5,3.1c-2.3,1.8-4.2,4-5.7,6.5c-0.7,1.2-1.8,2.3-3.1,3.1   c-2,1.2-4.2,1.5-6.3,1.1c-0.2,0-0.4-0.1-0.6-0.1c-0.2,0-0.3-0.1-0.5-0.1c-0.2-0.1-0.4-0.1-0.6-0.2c-0.2-0.1-0.4-0.2-0.5-0.2   c-0.1,0-0.2-0.1-0.3-0.1c-0.1,0-0.2-0.1-0.3-0.2c0,0,0,0-0.1,0c-0.1-0.1-0.2-0.1-0.3-0.2c-0.1-0.1-0.3-0.2-0.4-0.3   c-0.2-0.1-0.4-0.3-0.6-0.4c-0.1-0.1-0.2-0.2-0.3-0.3c-0.5-0.5-0.9-1-1.3-1.5c-0.1-0.1-0.2-0.2-0.2-0.4c-1.5-2.5-3.4-4.7-5.7-6.5   c-1.4-1.1-2.9-2.2-4.5-3.1c-1.6-0.9-3.2-1.7-4.9-2.4c-2.4-0.9-4.9-1.5-7.4-1.6c0,0,0,0,0,0c-0.3,0-0.6,0-0.9,0c-4.9,0-9-4.1-9-9   v-0.1c0-1.5,0.4-3.1,1.2-4.5c0.1-0.2,0.2-0.3,0.3-0.5c0,0,0,0,0-0.1c1.2-2.3,2-4.8,2.4-7.4c0.3-1.8,0.4-3.6,0.4-5.5   s-0.1-3.6-0.4-5.5c-0.4-2.9-1.4-5.7-2.8-8.2c-0.7-1.3-1.1-2.7-1.1-4.2c-0.1-5,4-9.1,9-9.1s9.1,4.1,9,9.1c0,1.5-0.4,3-1.1,4.2   c-1.4,2.6-2.4,5.3-2.8,8.2c-0.3,1.8-0.4,3.6-0.4,5.5c0,1.8,0.1,3.6,0.4,5.5c0.4,2.7,1.3,5.3,2.5,7.7c0,0,0.1,0.1,0.1,0.1   c1.5,2.5,3.4,4.7,5.7,6.6c1.4,1.1,2.9,2.2,4.5,3.1c1.6,0.9,3.2,1.7,4.9,2.4c2.7,1.1,5.6,1.6,8.5,1.7c0.1,0,0.1,0,0.2,0   c2.7-0.1,5.4-0.6,8-1.7c1.7-0.7,3.3-1.5,4.9-2.4c1.6-0.9,3.1-1.9,4.5-3.1c2.1-1.7,3.9-3.7,5.4-6c0-0.1,0.1-0.1,0.1-0.2   c1.4-2.6,2.4-5.3,2.8-8.2c0.3-1.8,0.4-3.6,0.4-5.5s-0.1-3.6-0.4-5.5c-0.4-2.9-1.4-5.7-2.8-8.2c-0.7-1.3-1.1-2.7-1.1-4.2   c-0.1-5,4-9.1,9-9.1c5,0,9.1,4.1,9,9.1c0,1.5-0.4,3-1.1,4.2c-1.4,2.6-2.4,5.3-2.8,8.2c-0.3,1.8-0.4,3.6-0.4,5.5   c0,1.8,0.1,3.6,0.4,5.5c0.4,2.5,1.2,5,2.3,7.2c0.2,0.2,0.4,0.5,0.5,0.8C91.3,67.5,90.2,72.6,86.5,75.3z"></path>
    <path d="M44.9,37.5c0.3-1.8,0.4-3.6,0.4-5.4c0-1.8-0.1-3.6-0.4-5.5c-0.4-2.9-1.4-5.7-2.8-8.2c-0.7-1.3-1.1-2.7-1.1-4.3   c0-5,4-9.1,9-9.1c5,0,9.1,4.1,9,9.1c0,1.5-0.4,3-1.1,4.3c-1.4,2.6-2.4,5.3-2.8,8.2c-0.3,1.8-0.4,3.6-0.4,5.5c0,1.8,0.1,3.6,0.4,5.4   c0.4,2.9,1.4,5.7,2.8,8.2c0.7,1.3,1.1,2.7,1.1,4.3c0.1,5-4,9.1-9,9.1c-5,0-9.1-4.1-9-9.1c0-1.5,0.4-3,1.1-4.3   C43.5,43.1,44.5,40.4,44.9,37.5z"></path>
    <path d="M67.8,30.1C66.3,29,64.8,28,63.3,27c-1.6-0.9-3.2-1.7-4.9-2.4c-2.7-1.1-5.6-1.6-8.5-1.7c-1.4,0-2.9-0.4-4.2-1.2   c-4.3-2.4-5.9-8-3.4-12.4c2.5-4.3,8.1-5.8,12.4-3.3C55.9,7,57,8.1,57.7,9.3c1.5,2.5,3.4,4.7,5.7,6.6c1.4,1.1,2.9,2.2,4.5,3.1   c1.6,0.9,3.2,1.7,4.9,2.4c2.7,1.1,5.6,1.6,8.5,1.7c1.4,0,2.9,0.4,4.2,1.2c4.3,2.4,5.9,8,3.4,12.4c-2.5,4.3-8.1,5.8-12.4,3.3   c-1.3-0.8-2.4-1.9-3.1-3.1C72,34.2,70.1,31.9,67.8,30.1z"></path>
  </g>
  <text x="100" y="135" text-anchor="middle" class="logo-text">
    <tspan fill="#7e22ce">PRAGMATIC</tspan>
    <tspan fill="#065f46" dx="5">LABS</tspan>
  </text>
</svg>